<?xml version="1.0" encoding="UTF-8"?>
<svg version="1.1" xmlns="http://www.w3.org/2000/svg" width="512" height="512">
<path d="M0 0 C21.12 0 42.24 0 64 0 C64 10.56 64 21.12 64 32 C74.56 32 85.12 32 96 32 C96 21.44 96 10.88 96 0 C159.36 0 222.72 0 288 0 C288 10.56 288 21.12 288 32 C298.56 32 309.12 32 320 32 C320 42.56 320 53.12 320 64 C330.56 64 341.12 64 352 64 C352 201.28 352 338.56 352 480 C341.44 480 330.88 480 320 480 C320 490.56 320 501.12 320 512 C214.4 512 108.8 512 0 512 C0 501.44 0 490.88 0 480 C-10.56 480 -21.12 480 -32 480 C-32 332.16 -32 184.32 -32 32 C-21.44 32 -10.88 32 0 32 C0 21.44 0 10.88 0 0 Z " fill="#000000" transform="translate(96,0)"/>
<path d="M0 0 C105.6 0 211.2 0 320 0 C320 95.04 320 190.08 320 288 C214.4 288 108.8 288 0 288 C0 192.96 0 97.92 0 0 Z " fill="#FEFEFE" transform="translate(96,224)"/>
<path d="M0 0 C10.56 0 21.12 0 32 0 C32 21.12 32 42.24 32 64 C53.12 64 74.24 64 96 64 C96 85.12 96 106.24 96 128 C85.44 128 74.88 128 64 128 C64 117.44 64 106.88 64 96 C53.44 96 42.88 96 32 96 C32 117.12 32 138.24 32 160 C137.6 160 243.2 160 352 160 C352 117.76 352 75.52 352 32 C362.56 32 373.12 32 384 32 C384 169.28 384 306.56 384 448 C373.44 448 362.88 448 352 448 C352 363.52 352 279.04 352 192 C246.4 192 140.8 192 32 192 C32 276.48 32 360.96 32 448 C21.44 448 10.88 448 0 448 C0 300.16 0 152.32 0 0 Z " fill="#000000" transform="translate(64,32)"/>
<path d="M0 0 C21.12 0 42.24 0 64 0 C64 42.24 64 84.48 64 128 C-41.6 128 -147.2 128 -256 128 C-256 106.88 -256 85.76 -256 64 C-245.44 64 -234.88 64 -224 64 C-224 74.56 -224 85.12 -224 96 C-213.44 96 -202.88 96 -192 96 C-192 85.44 -192 74.88 -192 64 C-170.88 64 -149.76 64 -128 64 C-128 74.56 -128 85.12 -128 96 C-117.44 96 -106.88 96 -96 96 C-96 85.44 -96 74.88 -96 64 C-74.88 64 -53.76 64 -32 64 C-32 74.56 -32 85.12 -32 96 C-21.44 96 -10.88 96 0 96 C0 85.44 0 74.88 0 64 C10.56 64 21.12 64 32 64 C32 53.44 32 42.88 32 32 C21.44 32 10.88 32 0 32 C0 21.44 0 10.88 0 0 Z " fill="#9E9E9E" transform="translate(352,64)"/>
<path d="M0 0 C21.12 0 42.24 0 64 0 C64 10.56 64 21.12 64 32 C85.12 32 106.24 32 128 32 C128 63.68 128 95.36 128 128 C106.88 128 85.76 128 64 128 C64 117.44 64 106.88 64 96 C42.88 96 21.76 96 0 96 C0 64.32 0 32.64 0 0 Z " fill="#000000" transform="translate(96,0)"/>
<path d="M0 0 C105.6 0 211.2 0 320 0 C320 10.56 320 21.12 320 32 C214.4 32 108.8 32 0 32 C0 21.44 0 10.88 0 0 Z " fill="#000000" transform="translate(96,480)"/>
<path d="M0 0 C63.36 0 126.72 0 192 0 C192 10.56 192 21.12 192 32 C128.64 32 65.28 32 0 32 C0 21.44 0 10.88 0 0 Z " fill="#0C46A0" transform="translate(160,384)"/>
<path d="M0 0 C63.36 0 126.72 0 192 0 C192 10.56 192 21.12 192 32 C128.64 32 65.28 32 0 32 C0 21.44 0 10.88 0 0 Z " fill="#0C46A1" transform="translate(160,320)"/>
<path d="M0 0 C63.36 0 126.72 0 192 0 C192 10.56 192 21.12 192 32 C128.64 32 65.28 32 0 32 C0 21.44 0 10.88 0 0 Z " fill="#0D47A1" transform="translate(160,256)"/>
<path d="M0 0 C10.56 0 21.12 0 32 0 C32 10.56 32 21.12 32 32 C42.56 32 53.12 32 64 32 C64 42.56 64 53.12 64 64 C42.88 64 21.76 64 0 64 C0 74.56 0 85.12 0 96 C-10.56 96 -21.12 96 -32 96 C-32 74.88 -32 53.76 -32 32 C-21.44 32 -10.88 32 0 32 C0 21.44 0 10.88 0 0 Z " fill="#000000" transform="translate(352,0)"/>
<path d="M0 0 C10.56 0 21.12 0 32 0 C32 21.12 32 42.24 32 64 C21.44 64 10.88 64 0 64 C0 42.88 0 21.76 0 0 Z " fill="#FFEA3B" transform="translate(288,32)"/>
<path d="M0 0 C10.56 0 21.12 0 32 0 C32 21.12 32 42.24 32 64 C21.44 64 10.88 64 0 64 C0 42.88 0 21.76 0 0 Z " fill="#FFEB3A" transform="translate(192,32)"/>
<path d="M0 0 C10.56 0 21.12 0 32 0 C32 21.12 32 42.24 32 64 C21.44 64 10.88 64 0 64 C0 42.88 0 21.76 0 0 Z " fill="#FFEB3A" transform="translate(96,32)"/>
<path d="M0 0 C21.12 0 42.24 0 64 0 C64 10.56 64 21.12 64 32 C42.88 32 21.76 32 0 32 C0 21.44 0 10.88 0 0 Z " fill="#FEEB3A" transform="translate(192,0)"/>
<path d="M0 0 C21.12 0 42.24 0 64 0 C64 10.56 64 21.12 64 32 C42.88 32 21.76 32 0 32 C0 21.44 0 10.88 0 0 Z " fill="#FEEB3A" transform="translate(96,0)"/>
<path d="M0 0 C10.56 0 21.12 0 32 0 C32 10.56 32 21.12 32 32 C21.44 32 10.88 32 0 32 C0 21.44 0 10.88 0 0 Z " fill="#000000" transform="translate(320,128)"/>
<path d="M0 0 C10.56 0 21.12 0 32 0 C32 10.56 32 21.12 32 32 C21.44 32 10.88 32 0 32 C0 21.44 0 10.88 0 0 Z " fill="#000000" transform="translate(224,128)"/>
<path d="M0 0 C10.56 0 21.12 0 32 0 C32 10.56 32 21.12 32 32 C21.44 32 10.88 32 0 32 C0 21.44 0 10.88 0 0 Z " fill="#000000" transform="translate(352,96)"/>
<path d="M0 0 C10.56 0 21.12 0 32 0 C32 10.56 32 21.12 32 32 C21.44 32 10.88 32 0 32 C0 21.44 0 10.88 0 0 Z " fill="#FFEB3B" transform="translate(320,96)"/>
<path d="M0 0 C10.56 0 21.12 0 32 0 C32 10.56 32 21.12 32 32 C21.44 32 10.88 32 0 32 C0 21.44 0 10.88 0 0 Z " fill="#FFEB3B" transform="translate(224,96)"/>
<path d="M0 0 C10.56 0 21.12 0 32 0 C32 10.56 32 21.12 32 32 C21.44 32 10.88 32 0 32 C0 21.44 0 10.88 0 0 Z " fill="#FFEB3A" transform="translate(128,96)"/>
<path d="M0 0 C10.56 0 21.12 0 32 0 C32 10.56 32 21.12 32 32 C21.44 32 10.88 32 0 32 C0 21.44 0 10.88 0 0 Z " fill="#FFEB3A" transform="translate(320,0)"/>
<path d="M0 0 C10.56 0 21.12 0 32 0 C32 10.56 32 21.12 32 32 C21.44 32 10.88 32 0 32 C0 21.44 0 10.88 0 0 Z " fill="#000000" transform="translate(192,0)"/>
<path d="M0 0 C10.56 0 21.12 0 32 0 C32 10.56 32 21.12 32 32 C21.44 32 10.88 32 0 32 C0 21.44 0 10.88 0 0 Z " fill="#000000" transform="translate(96,0)"/>
</svg>
